<?xml version="1.0" encoding="UTF-8"?>
<svg id="Layer_2" data-name="Layer 2" xmlns="http://www.w3.org/2000/svg" viewBox="0 0 230.29 91.58">
  <defs>
    <style>
      .cls-1 {
        fill: #fff;
      }

      .cls-2, .cls-3 {
        fill: #80c41c;
      }

      .cls-2, .cls-4, .cls-5 {
        fill-rule: evenodd;
      }

      .cls-6, .cls-4 {
        fill: #143a13;
      }

      .cls-7 {
        fill: #36781b;
      }

      .cls-5 {
        fill: #cce70b;
      }
    </style>
  </defs>
  <g id="_レイアウト" data-name="レイアウト">
    <g>
      <g>
        <polygon class="cls-5" points="16.91 26.36 4.12 14.57 .32 16.76 .32 25.74 .32 26.5 16.91 26.36"/>
        <polygon class="cls-4" points="62.24 65.28 32.16 65.28 32.16 47.67 62.24 17.92 62.24 65.28"/>
        <polygon class="cls-2" points="32.16 43.06 60.98 16.64 45.65 7.78 44.96 7.39 32.16 26.7 32.16 43.06"/>
        <polygon class="cls-2" points="28.66 32.53 28.66 .4 15.87 7.78 5.27 13.9 28.66 32.53"/>
        <polygon class="cls-5" points="32.16 0 32.16 21.16 43.45 6.52 32.16 0"/>
        <polygon class="cls-6" points="17.13 47.86 15.82 48.77 .32 59.64 .32 65.28 28.66 65.28 28.66 52.04 28.66 50.63 28.66 39.77 17.13 47.86"/>
        <polygon class="cls-7" points="27.38 35.97 18.98 28.26 .32 28.26 .32 34.72 .32 37.97 .32 39.58 .32 52.67 .32 57.34 27.38 35.97"/>
      </g>
      <g>
        <polygon class="cls-7" points="80.42 19.94 85.29 20.8 85.29 45.48 80.42 42.78 80.42 19.94"/>
        <path class="cls-7" d="m86.87,64.86c-.68.45-.41.77.14.57,18.1-8.39,14.41-30.1,14.41-44.64l-4.87-.86c0,12.64.34,18.28,0,24.32-.35,6.07-2.51,13.98-9.68,20.6Z"/>
        <polygon class="cls-7" points="120.13 20.4 121.34 24.58 144.98 24.58 143.4 20.4 120.13 20.4"/>
        <path class="cls-7" d="m116.57,29.66l1.54,5.19h24.36c-.44,4.38-3.37,11.59-9.37,18.54-6,6.95-11.4,11.21-12.29,11.6-.72.31.02.56.42.42,13.34-4.62,26.37-16.69,26.96-35.75h-31.61Z"/>
        <path class="cls-7" d="m198.69,21.6l1.54,5.19h24.36c-.44,4.38-6.55,19.65-12.54,26.59-6,6.95-11.4,11.21-12.29,11.6-.72.31.02.56.42.42,13.34-4.62,29.55-24.75,30.13-43.81h-31.61Z"/>
        <path class="cls-7" d="m188.45,18.17c-.15,1.72-5.02,11.03-9.96,17.46l.43,29.82h-5.44s-.31-22.93-.31-26.22c-9.46,10.69-16.95,9.69-18.42,9.78-.43.03-.53-.3-.07-.4,1.93-.42,4.46-1.8,8.05-4.94,3.59-3.14,14.35-13.31,20.11-25.5h5.61Z"/>
        <path class="cls-3" d="m96.64,42.17c-.02.7-.05,1.39-.09,2.08-.35,6.07-2.51,13.98-9.68,20.6-.68.45-.41.77.14.57,5.83-2.7,9.4-6.79,11.56-11.57.51-1.2,1.1-7.89-1.93-11.69Z"/>
        <path class="cls-3" d="m138.66,45.48c-1.37,2.59-3.27,5.25-5.56,7.9-6,6.95-11.4,11.21-12.29,11.6-.72.31.02.56.42.42,6.34-2.2,12.6-6.07,17.5-11.58,1.39-1.66,2.02-7.42-.06-8.35Z"/>
        <path class="cls-3" d="m178.59,42.09l.34,23.35h-5.44l-.26-19.83c1.27-1.73,2.86-3.26,5.37-3.52Z"/>
        <path class="cls-3" d="m226.32,37.92c-5.73,13.03-16.68,24.19-26.19,27.48-.39.14-1.13-.11-.42-.42.89-.39,6.3-4.65,12.29-11.6,2.79-3.23,5.61-8.27,7.86-13.17,1.57-3.67,6.45-2.29,6.45-2.29Z"/>
      </g>
      <rect class="cls-6" y="73.42" width="229.98" height="18.16"/>
      <g>
        <path class="cls-1" d="m85.76,79.9l.4.25s-.06.06-.12.08c-.29.74-.73,1.48-1.24,2.14.39.3,1.2.99,1.41,1.17l-.35.52c-.22-.25-.72-.72-1.12-1.09v3.78h-.61v-3.59c-.41.45-.85.85-1.27,1.16-.06-.17-.23-.44-.34-.55,1.05-.71,2.17-1.98,2.79-3.27h-2.5v-.57h1.33v-1.71l.78.05c0,.06-.06.11-.17.13v1.54h.9l.11-.04Zm3.19-.06h2.12v4.62h-.59v-.37h-1.53v2.65h-.6v-2.65h-1.45v.41h-.57v-4.67h2.02v-1.62l.77.06c0,.06-.05.1-.17.12v1.45Zm-.6.57h-1.45v1.27h1.45v-1.27Zm-1.45,3.13h1.45v-1.31h-1.45v1.31Zm3.58-3.13h-1.53v1.27h1.53v-1.27Zm-1.53,3.13h1.53v-1.31h-1.53v1.31Z"/>
        <path class="cls-1" d="m93.28,85.72h8.32v.61h-8.32v-.61Zm8.06-5.62v.61h-7.74v-.61h3.49v-1.87l.82.05c0,.06-.05.11-.18.13v1.69h3.61Zm-5.91,1.11c.48,1.24.81,2.81.86,3.87-.06,0-.13,0-.63.14-.04-1.04-.37-2.63-.82-3.86l.59-.15Zm4.83.12c-.03.06-.11.12-.23.13-.28,1.21-.79,3-1.22,4.01l-.55-.16c.4-1.05.87-2.89,1.11-4.17l.89.19Z"/>
        <path class="cls-1" d="m112.11,85.96h-.9l-2.28-3.5-.65.76v2.74h-.76v-6.99h.76v3.41h.04c.17-.27.37-.52.54-.75l2.13-2.66h.94l-2.46,2.97,2.65,4.02Z"/>
        <path class="cls-1" d="m118.33,83.42c0,1.86-1.23,2.65-2.34,2.65-1.28,0-2.27-.96-2.27-2.58,0-1.71,1.06-2.65,2.34-2.65,1.37,0,2.27,1.05,2.27,2.58Zm-2.3-1.98c-1.08,0-1.53,1.06-1.53,2.03,0,1.11.61,2.01,1.51,2.01s1.54-.9,1.54-2.03c0-.89-.43-2.01-1.52-2.01Z"/>
        <path class="cls-1" d="m124.8,84.73c0,.4.02.9.04,1.24h-.68l-.04-.85h-.03c-.26.52-.83.96-1.63.96-1.16,0-2.05-1-2.05-2.54,0-1.69.99-2.68,2.15-2.68.73,0,1.23.36,1.46.77h.02v-3h.76v6.1Zm-.76-1.76c0-1-.71-1.5-1.35-1.5-.94,0-1.5.88-1.5,2.03,0,1.05.5,1.95,1.48,1.95.83,0,1.38-.72,1.38-1.52v-.96Z"/>
        <path class="cls-1" d="m130.87,84.77c0,.41,0,.84.07,1.19h-.7l-.07-.64h-.03c-.26.39-.77.75-1.48.75-.95,0-1.46-.7-1.46-1.42,0-1.2,1.05-1.85,2.9-1.84,0-.42,0-1.38-1.14-1.38-.43,0-.88.12-1.22.36l-.18-.52c.4-.27.96-.42,1.52-.42,1.41,0,1.78,1,1.78,1.99v1.93Zm-.75-1.4c-.94,0-2.13.14-2.13,1.19,0,.64.4.93.86.93.74,0,1.27-.57,1.27-1.17v-.94Z"/>
        <path class="cls-1" d="m137,85.78c-.22.11-.72.28-1.36.28-1.43,0-2.38-1.02-2.38-2.55s1.02-2.67,2.56-2.67c.56,0,1.01.17,1.2.27l-.19.61c-.21-.12-.54-.26-1.03-.26-1.16,0-1.76.93-1.76,2,0,1.21.72,1.97,1.73,1.97.5,0,.83-.14,1.08-.25l.14.59Z"/>
        <path class="cls-1" d="m143.35,85.96h-.76v-2.95c0-.82-.29-1.52-1.16-1.52-.59,0-1.32.49-1.32,1.4v3.07h-.76v-7.34h.76v3.11h.02c.33-.55.94-.89,1.55-.89s1.67.38,1.67,2.07v3.04Z"/>
        <path class="cls-1" d="m146.49,80.09c-.29,0-.5-.23-.5-.52s.21-.51.5-.51.5.23.5.51c0,.32-.21.52-.5.52Zm.39,5.88h-.76v-5h.76v5Z"/>
      </g>
    </g>
  </g>
</svg>